<?xml version="1.0" encoding="UTF-8" standalone="no"?>
<!-- Created with Inkscape (http://www.inkscape.org/) -->

<svg
   width="6mm"
   height="5.9999824mm"
   viewBox="0 0 6.0000001 5.9999823"
   version="1.1"
   id="svg5"
   inkscape:version="1.1 (c68e22c387, 2021-05-23)"
   sodipodi:docname="DarkMode.svg"
   xmlns:inkscape="http://www.inkscape.org/namespaces/inkscape"
   xmlns:sodipodi="http://sodipodi.sourceforge.net/DTD/sodipodi-0.dtd"
   xmlns="http://www.w3.org/2000/svg"
   xmlns:svg="http://www.w3.org/2000/svg">
  <sodipodi:namedview
     id="namedview7"
     pagecolor="#ffffff"
     bordercolor="#666666"
     borderopacity="1.0"
     inkscape:pageshadow="2"
     inkscape:pageopacity="0"
     inkscape:pagecheckerboard="0"
     inkscape:document-units="mm"
     showgrid="false"
     fit-margin-top="0"
     fit-margin-left="0"
     fit-margin-right="0"
     fit-margin-bottom="0"
     inkscape:zoom="11.859035"
     inkscape:cx="14.588034"
     inkscape:cy="16.400997"
     inkscape:window-width="1920"
     inkscape:window-height="1017"
     inkscape:window-x="1912"
     inkscape:window-y="-4"
     inkscape:window-maximized="1"
     inkscape:current-layer="layer1" />
  <defs
     id="defs2" />
  <g
     inkscape:label="Livello 1"
     inkscape:groupmode="layer"
     id="layer1"
     transform="translate(-79.291264,-71.437891)">
    <path
       id="path982"
       style="fill:#000000;fill-opacity:1;fill-rule:nonzero;stroke:none;stroke-width:1.50813"
       d="m 82.293473,71.729435 c -1.496081,0 -2.710656,1.212369 -2.710656,2.70845 0,1.496089 1.214575,2.708445 2.710656,2.708445 1.494553,0 2.706239,-1.212356 2.706239,-2.708445 0,-1.496081 -1.211686,-2.70845 -2.706239,-2.70845 z m -0.03548,1.407246 c 0.01112,-2.87e-4 0.02394,0 0.03548,0 0.71786,0 1.298997,0.583339 1.298997,1.301204 0,0.71786 -0.581137,1.301203 -1.298997,1.301203 -0.719392,0 -1.30341,-0.583343 -1.30341,-1.301203 0,-0.706643 0.564234,-1.283356 1.268072,-1.301204 z" />
  </g>
</svg>
