<?xml version="1.0" encoding="UTF-8" standalone="no"?>
<!-- Created with Inkscape (http://www.inkscape.org/) -->

<svg
   width="90.073997mm"
   height="61.523567mm"
   viewBox="0 0 90.073994 61.523564"
   version="1.1"
   id="svg2620"
   inkscape:version="1.1 (c68e22c387, 2021-05-23)"
   sodipodi:docname="favicon.svg"
   xmlns:inkscape="http://www.inkscape.org/namespaces/inkscape"
   xmlns:sodipodi="http://sodipodi.sourceforge.net/DTD/sodipodi-0.dtd"
   xmlns="http://www.w3.org/2000/svg"
   xmlns:svg="http://www.w3.org/2000/svg">
  <sodipodi:namedview
     id="namedview2622"
     pagecolor="#ffffff"
     bordercolor="#666666"
     borderopacity="1.0"
     inkscape:pageshadow="2"
     inkscape:pageopacity="0"
     inkscape:pagecheckerboard="0"
     inkscape:document-units="mm"
     showgrid="false"
     inkscape:lockguides="true"
     fit-margin-top="1"
     fit-margin-left="1"
     fit-margin-right="1"
     fit-margin-bottom="1"
     inkscape:zoom="1"
     inkscape:cx="26"
     inkscape:cy="156.5"
     inkscape:window-width="1920"
     inkscape:window-height="1017"
     inkscape:window-x="1912"
     inkscape:window-y="-4"
     inkscape:window-maximized="1"
     inkscape:current-layer="layer1"
     lock-margins="true" />
  <defs
     id="defs2617" />
  <g
     inkscape:label="Livello 1"
     inkscape:groupmode="layer"
     id="layer1"
     transform="translate(-145.79908,-221.99858)">
    <g
       id="g827"
       transform="matrix(6.0000572,0,0,6.0000572,-734.0038,-1115.0056)">
      <path
         style="fill:#000000;fill-opacity:1;fill-rule:nonzero;stroke:none;stroke-width:0.352778"
         d="m 147.99108,222.99857 h 12.29486 c 0.6587,0 1.192,0.53606 1.192,1.192 v 7.53512 c 0,0.65732 -0.5333,1.19338 -1.192,1.19338 h -12.29486 c -0.66008,0 -1.192,-0.53606 -1.192,-1.19338 v -7.53512 c 0,-0.65594 0.53192,-1.192 1.192,-1.192"
         id="path562" />
      <path
         style="fill:#ffffff;fill-opacity:1;fill-rule:nonzero;stroke:none;stroke-width:0.352778"
         d="m 148.06963,224.24707 h 1.55443 v 6.11436 h 3.72208 v 1.3367 h -5.27651"
         id="path564" />
      <path
         style="fill:#ffffff;fill-opacity:1;fill-rule:nonzero;stroke:none;stroke-width:0.352778"
         d="m 155.51793,229.39818 c 0.0496,0.339 0.14469,0.59531 0.28525,0.76206 0.25356,0.3073 0.69453,0.46164 1.32292,0.46164 0.37345,0 0.68488,-0.0427 0.91364,-0.12265 0.44511,-0.15571 0.66697,-0.4451 0.66697,-0.8654 0,-0.24667 -0.10611,-0.43684 -0.32522,-0.57051 -0.21497,-0.13092 -0.56362,-0.24805 -1.03353,-0.35002 l -0.81028,-0.17639 c -0.78686,-0.17226 -1.33808,-0.36243 -1.63022,-0.57189 -0.50161,-0.34451 -0.7593,-0.88194 -0.7593,-1.61093 0,-0.66697 0.24805,-1.22094 0.73725,-1.66604 0.49747,-0.44098 1.21405,-0.66284 2.16628,-0.66284 0.79788,0 1.4745,0.21222 2.03949,0.62839 0.55673,0.41616 0.85025,1.01837 0.87781,1.80936 h -1.49517 c -0.0289,-0.44786 -0.226,-0.76619 -0.60358,-0.95222 -0.24253,-0.12678 -0.55673,-0.18742 -0.92466,-0.18742 -0.41204,0 -0.74001,0.0813 -0.98392,0.24392 -0.24667,0.15847 -0.36656,0.38447 -0.36656,0.67386 0,0.26734 0.11989,0.46577 0.35967,0.59944 0.15572,0.0841 0.48644,0.18742 0.99081,0.3073 l 1.30638,0.30593 c 0.57464,0.13505 1.00183,0.31833 1.29122,0.54432 0.44373,0.34865 0.66283,0.85714 0.66283,1.51998 0,0.68075 -0.25769,1.2485 -0.78685,1.69637 -0.52504,0.44786 -1.26642,0.67386 -2.22967,0.67386 -0.98392,0 -1.75287,-0.21911 -2.31786,-0.66284 -0.55673,-0.44511 -0.84336,-1.05144 -0.84336,-1.82728"
         id="path566" />
    </g>
  </g>
</svg>
