<?xml version="1.0" encoding="UTF-8" standalone="no"?>
<!-- Created with Inkscape (http://www.inkscape.org/) -->

<svg
   width="982.69696mm"
   height="86.864632mm"
   viewBox="0 0 982.69696 86.864633"
   version="1.1"
   id="svg7247"
   inkscape:version="1.4 (86a8ad7, 2024-10-11)"
   sodipodi:docname="Logo.svg"
   xmlns:inkscape="http://www.inkscape.org/namespaces/inkscape"
   xmlns:sodipodi="http://sodipodi.sourceforge.net/DTD/sodipodi-0.dtd"
   xmlns="http://www.w3.org/2000/svg"
   xmlns:svg="http://www.w3.org/2000/svg">
  <sodipodi:namedview
     id="namedview7249"
     pagecolor="#ffffff"
     bordercolor="#666666"
     borderopacity="1.0"
     inkscape:pageshadow="2"
     inkscape:pageopacity="0.0"
     inkscape:pagecheckerboard="0"
     inkscape:document-units="mm"
     showgrid="false"
     fit-margin-top="0"
     fit-margin-left="0"
     fit-margin-right="0"
     fit-margin-bottom="0"
     inkscape:zoom="0.3884119"
     inkscape:cx="1678.6303"
     inkscape:cy="-220.12714"
     inkscape:window-width="1920"
     inkscape:window-height="1111"
     inkscape:window-x="-9"
     inkscape:window-y="-9"
     inkscape:window-maximized="1"
     inkscape:current-layer="layer1"
     inkscape:showpageshadow="2"
     inkscape:deskcolor="#d1d1d1" />
  <defs
     id="defs7244" />
  <g
     inkscape:label="Livello 1"
     inkscape:groupmode="layer"
     id="layer1"
     transform="translate(445.17636,-56.677366)">
    <g
       id="g1"
       transform="translate(87.950395)">
      <path
         style="fill:#000000;fill-opacity:1;fill-rule:nonzero;stroke:none;stroke-width:0.352778"
         d="m 22.56802,66.329139 h 8.25857 v 9.653157 h -8.25857 z m 0,67.561081 v -28.95533 h -8.25859 v -9.653174 h 16.51716 v 38.608504 z m -24.7730002,0 H 22.56802 V 143.542 H -2.2049802 Z m 0,-77.212861 H 22.56802 v 9.65315 H -2.2049802 Z m -8.2571898,9.65178 h 8.2571898 V 133.89022 H -10.46217 Z m 0,0"
         id="path714-7" />
      <path
         style="fill:#000000;fill-opacity:1;fill-rule:nonzero;stroke:none;stroke-width:0.352778"
         d="m -401.37282,66.329139 h 8.25857 v 9.653157 h -8.25857 z m 0,67.561081 v -28.95533 h -8.25859 v -9.653174 h 16.51716 v 38.608504 z m -24.773,0 h 24.773 v 9.65178 h -24.773 z m 0,-77.212861 h 24.773 v 9.65315 h -24.773 z m -8.25719,9.65178 h 8.25719 v 67.561081 h -8.25719 z m 0,0"
         id="path714-8" />
      <path
         style="fill:#000000;fill-opacity:1;fill-rule:nonzero;stroke:none;stroke-width:0.352778"
         d="m 326.07486,143.542 v -9.65316 h 8.2586 V 66.329139 h -8.2586 v -9.64902 h 24.7716 v 9.64902 h -8.25443 v 67.559701 h 8.25443 v 9.65316"
         id="path716" />
      <path
         style="fill:#000000;fill-opacity:1;fill-rule:nonzero;stroke:none;stroke-width:0.352778"
         d="m -378.31345,143.542 v -9.65316 h 8.2586 V 66.329136 h -8.2586 v -9.649017 h 24.7716 v 9.649017 h -8.25443 v 67.559704 h 8.25443 v 9.65316"
         id="path716-8" />
      <path
         style="fill:#000000;fill-opacity:1;fill-rule:nonzero;stroke:none;stroke-width:0.352778"
         d="m 109.9751,56.680119 h 24.77161 v 9.6531 H 109.9751 Z M 101.71651,143.542 V 66.331919 h 8.25859 v 28.952502 h 24.77574 V 66.331919 h 8.25446 V 143.542 h -8.25446 V 104.93763 H 109.9751 V 143.542"
         id="path688" />
      <path
         style="fill:#000000;fill-opacity:1;fill-rule:nonzero;stroke:none;stroke-width:0.352778"
         d="m -330.48247,56.680119 h 24.77161 v 9.6531 h -24.77161 z M -338.74106,143.542 V 66.331919 h 8.25859 v 28.952502 h 24.77574 V 66.331919 h 8.25446 V 143.542 h -8.25446 v -38.60437 h -24.77574 V 143.542"
         id="path688-2" />
      <path
         style="fill:#000000;fill-opacity:1;fill-rule:nonzero;stroke:none;stroke-width:0.352778"
         d="m -249.62128,66.329139 c -33.03019,-9.65178 -33.03019,-9.65178 0,0 z m 0,67.561081 c -33.03019,-77.212861 -33.03019,-77.212861 0,0 z m -24.773,0 h 24.773 v 9.65178 h -24.773 z m 0,-77.212861 h 24.773 v 9.65315 h -24.773 z m -8.25719,9.65178 h 8.25719 v 67.561081 h -8.25719 z"
         id="path714-0-4"
         sodipodi:nodetypes="ccccccccccccccccccc" />
      <path
         style="fill:#000000;fill-opacity:1;fill-rule:nonzero;stroke:none;stroke-width:0.352778"
         d="m -201.79029,66.329139 h 8.25859 v 67.561081 h -8.25859 z m -24.77161,67.561081 h 24.77161 v 9.65178 h -24.77161 z m 0,-77.212861 h 24.77161 v 9.65315 h -24.77161 z m -8.25858,9.65178 h 8.25858 v 67.561081 h -8.25858 z m 0,0"
         id="path684" />
      <path
         style="fill:#000000;fill-opacity:1;fill-rule:nonzero;stroke:none;stroke-width:0.352778"
         d="m -89.611134,66.329149 h 8.25859 v 67.561071 h -8.25859 z m -24.771606,67.561071 h 24.771606 v 9.65178 h -24.771606 z m 0,-77.212861 h 24.771606 v 9.65316 h -24.771606 z m -8.25858,9.65179 h 8.25858 v 67.561071 h -8.25858 z m 0,0"
         id="path684-5-1" />
      <path
         style="fill:#000000;fill-opacity:1;fill-rule:nonzero;stroke:none;stroke-width:0.352778"
         d="M -145.70072,143.542 V 85.632699 h -8.2586 v -19.30356 h 8.2586 v -9.64902 h 8.2586 V 143.542 Z m -16.51716,-57.909301 h 8.25856 v 19.304941 h -8.25856 z M -178.73091,143.542 V 56.680119 h 8.25859 v 9.64902 h 8.25444 v 19.30356 h -8.25444 V 143.542"
         id="path706-5" />
      <path
         style="fill:#000000;fill-opacity:1;fill-rule:nonzero;stroke:none;stroke-width:0.352778"
         d="m 78.657576,133.89022 -0.006,-77.111439 h 8.26414 v 77.111439 z m -24.773,0 h 24.773 v 9.65178 h -24.773 z m 0,-77.147799 c -8.25719,-9.65315 -8.25719,-9.65315 0,0 z m -8.25719,-10e-4 h 8.25719 v 77.149169 h -8.25719 z"
         id="path714-9"
         sodipodi:nodetypes="ccccccccccccccccc" />
      <path
         style="fill:#000000;fill-opacity:1;fill-rule:nonzero;stroke:none;stroke-width:0.352778"
         d="m 303.01546,104.93489 h 8.2586 v 28.95258 h -8.2586 z m 0,-38.605751 h 8.2586 v 9.653163 h -8.2586 z m -24.77159,67.561081 h 24.77159 v 9.65178 h -24.77159 z m 0,-38.608498 h 24.77159 v 9.653168 h -24.77159 z m 0,-38.604363 h 24.77159 v 9.65315 h -24.77159 z m -8.2586,67.561091 h 8.2586 v 9.65177 h -8.2586 z m 0,-57.909311 h 8.2586 v 28.952583 h -8.2586 z m 0,0"
         id="path696" />
      <path
         style="fill:#000000;fill-opacity:1;fill-rule:nonzero;stroke:none;stroke-width:0.352778"
         d="m 190.83629,114.58941 h 8.2586 V 143.542 h -8.2586 z m 0,-48.257511 h 8.2586 v 28.952577 h -8.2586 z M 157.8061,143.542 V 56.680119 h 33.03019 v 9.65178 h -24.7716 v 28.952577 h 24.7716 v 19.304934 h -8.25443 v -9.65177 H 166.06469 V 143.542"
         id="path710" />
      <path
         style="fill:#000000;fill-opacity:1;fill-rule:nonzero;stroke:none;stroke-width:0.352778"
         d="M 213.89569,143.542 V 56.680119 h 41.28879 v 9.64902 h -33.0302 v 28.955337 h 33.0302 v 9.653164 h -33.0302 v 28.9512 h 33.0302 v 9.65316"
         id="path682" />
    </g>
  </g>
</svg>
