<svg xmlns="http://www.w3.org/2000/svg" width="495" height="149" viewBox="0 0 495 149" fill="none" role="img" aria-label="Top languages">
  <title>Top languages</title>
  <rect x="0.5" y="0.5" width="494" height="148" rx="4.5" fill="#1d1f21" stroke="#2c2f31"/>
  <text x="25" y="30" font-family="'Segoe UI', Ubuntu, Sans-Serif" font-size="16" font-weight="600" fill="#ffffff">Most Used Languages</text>
  <defs><clipPath id="bar"><rect x="25" y="45" width="445" height="8" rx="4.0"/></clipPath></defs>
  <g clip-path="url(#bar)">
    <rect x="25" y="45" width="445" height="8" fill="#3a3d40"/>
    <rect x="25.00" y="45" width="204.73" height="8" fill="#3178c6"/>
    <rect x="229.73" y="45" width="100.99" height="8" fill="#e34c26"/>
    <rect x="330.72" y="45" width="62.22" height="8" fill="#f1e05a"/>
    <rect x="392.93" y="45" width="37.07" height="8" fill="#3572A5"/>
    <rect x="430.00" y="45" width="21.95" height="8" fill="#663399"/>
    <rect x="451.96" y="45" width="18.04" height="8" fill="#945db7"/>
  </g>
  <circle cx="30.0" cy="77" r="5" fill="#3178c6"/>
  <text x="43.0" y="81" font-family="'Segoe UI', Ubuntu, Sans-Serif" font-size="13" font-weight="600" fill="#c9cacc">TypeScript 46.01%</text>
  <circle cx="252.5" cy="77" r="5" fill="#e34c26"/>
  <text x="265.5" y="81" font-family="'Segoe UI', Ubuntu, Sans-Serif" font-size="13" font-weight="600" fill="#c9cacc">HTML 22.69%</text>
  <circle cx="30.0" cy="99" r="5" fill="#f1e05a"/>
  <text x="43.0" y="103" font-family="'Segoe UI', Ubuntu, Sans-Serif" font-size="13" font-weight="600" fill="#c9cacc">JavaScript 13.98%</text>
  <circle cx="252.5" cy="99" r="5" fill="#3572A5"/>
  <text x="265.5" y="103" font-family="'Segoe UI', Ubuntu, Sans-Serif" font-size="13" font-weight="600" fill="#c9cacc">Python 8.33%</text>
  <circle cx="30.0" cy="121" r="5" fill="#663399"/>
  <text x="43.0" y="125" font-family="'Segoe UI', Ubuntu, Sans-Serif" font-size="13" font-weight="600" fill="#c9cacc">CSS 4.93%</text>
  <circle cx="252.5" cy="121" r="5" fill="#945db7"/>
  <text x="265.5" y="125" font-family="'Segoe UI', Ubuntu, Sans-Serif" font-size="13" font-weight="600" fill="#c9cacc">Visual Basic 4.05%</text>
</svg>
