<?xml version="1.0" standalone="no"?>
<!DOCTYPE svg PUBLIC "-//W3C//DTD SVG 20010904//EN"
 "http://www.w3.org/TR/2001/REC-SVG-20010904/DTD/svg10.dtd">
<svg version="1.0" xmlns="http://www.w3.org/2000/svg"
 width="1360.000000pt" height="1360.000000pt" viewBox="0 0 1360.000000 1360.000000"
 preserveAspectRatio="xMidYMid meet">
<metadata>
Created by potrace 1.14, written by Peter Selinger 2001-2017
</metadata>
<g transform="translate(0.000000,1360.000000) scale(0.100000,-0.100000)"
fill="#000000" stroke="none">
<path d="M1058 11275 c-270 -45 -519 -195 -682 -409 -92 -120 -150 -240 -198
-411 l-23 -80 -3 -3515 c-2 -2596 0 -3540 8 -3610 59 -488 452 -881 940 -940
71 -8 1555 -10 5765 -8 l5670 3 80 22 c444 120 755 460 821 893 21 144 21
7008 -1 7150 -66 436 -375 772 -820 893 l-80 22 -5700 1 c-4629 2 -5714 0
-5777 -11z m8632 -925 c579 -41 1061 -199 1497 -491 455 -305 731 -718 843
-1264 23 -112 50 -325 50 -397 l0 -48 -675 0 -675 0 -4 23 c-3 12 -8 49 -11
82 -17 165 -86 340 -187 477 -153 207 -434 358 -783 420 -114 20 -163 23 -395
23 -228 0 -282 -3 -385 -22 -542 -98 -845 -384 -845 -798 0 -159 51 -298 147
-404 117 -130 257 -197 638 -306 228 -65 444 -118 1315 -320 653 -152 940
-246 1220 -400 499 -276 768 -679 841 -1260 15 -119 15 -448 0 -555 -49 -356
-163 -642 -364 -913 -77 -104 -256 -288 -372 -382 -370 -299 -838 -478 -1445
-552 -116 -14 -224 -18 -540 -18 -414 0 -543 9 -819 56 -490 83 -954 279
-1282 540 -111 88 -308 293 -382 396 -228 319 -351 688 -373 1121 l-7 132 677
0 c372 0 676 -3 676 -6 0 -4 11 -62 25 -129 97 -481 308 -732 733 -876 430
-145 1204 -123 1604 46 271 114 436 290 499 530 26 98 31 291 10 375 -83 334
-400 503 -1322 705 -686 150 -813 179 -1014 230 -483 125 -830 257 -1050 399
-382 248 -610 608 -696 1096 -41 232 -36 584 11 817 120 588 505 1089 1049
1367 463 237 1136 352 1791 306z m-6980 -2960 l0 -2770 1685 0 1685 0 0 -605
0 -605 -2390 0 -2390 0 0 3368 c0 1853 3 3372 7 3375 3 4 321 7 705 7 l698 0
0 -2770z"/>
</g>
</svg>
