<?xml version="1.0" encoding="UTF-8" standalone="no"?>
<!-- Created with Inkscape (http://www.inkscape.org/) -->

<svg
   width="35.705971mm"
   height="35.705971mm"
   viewBox="0 0 35.705971 35.70597"
   version="1.1"
   id="svg2620"
   inkscape:version="1.1 (c68e22c387, 2021-05-23)"
   sodipodi:docname="bombDrop.svg"
   xmlns:inkscape="http://www.inkscape.org/namespaces/inkscape"
   xmlns:sodipodi="http://sodipodi.sourceforge.net/DTD/sodipodi-0.dtd"
   xmlns="http://www.w3.org/2000/svg"
   xmlns:svg="http://www.w3.org/2000/svg">
  <sodipodi:namedview
     id="namedview2622"
     pagecolor="#ffffff"
     bordercolor="#666666"
     borderopacity="1.0"
     inkscape:pageshadow="2"
     inkscape:pageopacity="0.0"
     inkscape:pagecheckerboard="0"
     inkscape:document-units="mm"
     showgrid="false"
     inkscape:lockguides="true"
     fit-margin-top="0"
     fit-margin-left="0"
     fit-margin-right="0"
     fit-margin-bottom="0"
     inkscape:zoom="2.56"
     inkscape:cx="25.78125"
     inkscape:cy="53.710938"
     inkscape:window-width="1920"
     inkscape:window-height="1017"
     inkscape:window-x="1912"
     inkscape:window-y="-4"
     inkscape:window-maximized="1"
     inkscape:current-layer="layer1"
     width="35.70597mm" />
  <defs
     id="defs2617" />
  <g
     inkscape:label="Livello 1"
     inkscape:groupmode="layer"
     id="layer1"
     transform="translate(-150.64537,-209.9893)">
    <g
       id="g915"
       transform="matrix(20.886794,0,0,20.886794,-2984.9994,-4176.0127)">
      <path
         d="m 150.82679,209.98924 v 0.1778 l 0.0593,0.0593 v 0.0296 l -0.0593,0.47378 v 0.54822 c 0,0.09 0.073,0.16263 0.16299,0.16263 0.09,0 0.16298,-0.0727 0.16298,-0.16263 v -0.54822 l -0.0593,-0.47378 v -0.0296 l 0.0593,-0.0593 v -0.1778 z"
         style="fill:#000000;fill-opacity:1;fill-rule:nonzero;stroke:none;stroke-width:0.352778"
         id="path3476" />
      <path
         d="m 150.64532,211.62814 c 0,-0.0388 0.14993,-0.0706 0.33514,-0.0706 0.18521,0 0.33514,0.0317 0.33514,0.0706 0,0.0388 -0.14993,0.0706 -0.33514,0.0706 -0.18521,0 -0.33514,-0.0318 -0.33514,-0.0706"
         style="fill:#000000;fill-opacity:1;fill-rule:nonzero;stroke:none;stroke-width:0.352778"
         id="path3492" />
    </g>
  </g>
</svg>
