<?xml version="1.0" encoding="UTF-8" standalone="no"?>
<!-- Created with Inkscape (http://www.inkscape.org/) -->

<svg
   width="982.69696mm"
   height="86.864639mm"
   viewBox="0 0 982.69696 86.86464"
   version="1.1"
   id="svg7247"
   inkscape:version="1.1 (c68e22c387, 2021-05-23)"
   sodipodi:docname="LogoDark.svg"
   xmlns:inkscape="http://www.inkscape.org/namespaces/inkscape"
   xmlns:sodipodi="http://sodipodi.sourceforge.net/DTD/sodipodi-0.dtd"
   xmlns="http://www.w3.org/2000/svg"
   xmlns:svg="http://www.w3.org/2000/svg">
  <sodipodi:namedview
     id="namedview7249"
     pagecolor="#ffffff"
     bordercolor="#666666"
     borderopacity="1.0"
     inkscape:pageshadow="2"
     inkscape:pageopacity="0.0"
     inkscape:pagecheckerboard="0"
     inkscape:document-units="mm"
     showgrid="false"
     fit-margin-top="0"
     fit-margin-left="0"
     fit-margin-right="0"
     fit-margin-bottom="0"
     inkscape:zoom="0.3884119"
     inkscape:cx="1096.7738"
     inkscape:cy="-202.10504"
     inkscape:window-width="1920"
     inkscape:window-height="1017"
     inkscape:window-x="1912"
     inkscape:window-y="-4"
     inkscape:window-maximized="1"
     inkscape:current-layer="layer1" />
  <defs
     id="defs7244" />
  <g
     inkscape:label="Livello 1"
     inkscape:groupmode="layer"
     id="layer1"
     transform="translate(291.90801,-163.62461)">
    <path
       style="fill:#00ff66;fill-opacity:1;fill-rule:nonzero;stroke:none;stroke-width:0.352778"
       d="m -291.90801,250.48649 v -86.86188 h 8.25859 v 77.20872 h 33.03019 v 9.65316"
       id="path680" />
    <path
       style="fill:#00ff66;fill-opacity:1;fill-rule:nonzero;stroke:none;stroke-width:0.352778"
       d="m -242.36065,250.48649 v -86.86188 h 41.28879 v 9.64903 h -33.0302 v 28.95534 h 33.0302 v 9.65315 h -33.0302 v 28.9512 h 33.0302 v 9.65316"
       id="path682" />
    <path
       style="fill:#00ff66;fill-opacity:1;fill-rule:nonzero;stroke:none;stroke-width:0.352778"
       d="m -159.78309,173.27639 h 8.25859 v 67.56108 h -8.25859 z m -24.77161,67.56108 h 24.77161 v 9.65178 h -24.77161 z m 0,-77.21286 h 24.77161 v 9.65316 h -24.77161 z m -8.25858,9.65178 h 8.25858 v 67.56108 h -8.25858 z m 0,0"
       id="path684" />
    <path
       style="fill:#00ff66;fill-opacity:1;fill-rule:nonzero;stroke:none;stroke-width:0.352778"
       d="m -110.23297,250.48649 v -19.30493 h -8.25858 v -19.29943 h 8.25858 v -48.25752 h 8.25859 v 86.86188 z m -16.51716,-48.25751 h 8.25858 v 9.65315 h -8.25858 z m -16.51304,48.25751 v -86.86188 h 8.25859 v 19.30081 h 8.25445 v 19.30356 h -8.25445 v 48.25751"
       id="path686" />
    <path
       style="fill:#00ff66;fill-opacity:1;fill-rule:nonzero;stroke:none;stroke-width:0.352778"
       d="m -85.459974,163.62461 h 24.771614 v 9.65316 h -24.771614 z m -8.258584,86.86188 v -77.2101 h 8.258584 v 28.95259 h 24.775745 v -28.95259 h 8.25445 v 77.2101 h -8.25445 v -38.60436 h -24.775745 v 38.60436"
       id="path688" />
    <path
       style="fill:#00ff66;fill-opacity:1;fill-rule:nonzero;stroke:none;stroke-width:0.352778"
       d="m -11.136866,221.53391 h 8.2585837 v 28.95258 h -8.2585837 z m 0,-48.25752 h 8.2585837 v 28.95259 h -8.2585837 z m -33.034329,77.2101 v -86.86188 h 33.034329 v 9.65178 h -24.775749 v 28.95259 h 24.775749 v 19.30493 h -8.258581 v -9.65178 h -16.517168 v 38.60436"
       id="path690" />
    <path
       style="fill:#00ff66;fill-opacity:1;fill-rule:nonzero;stroke:none;stroke-width:0.352778"
       d="m 38.410496,173.27639 h 8.258577 v 67.56108 H 38.410496 Z M 5.3761672,250.48649 V 163.62461 H 38.410496 v 9.65178 H 13.634748 v 67.56108 h 24.775748 v 9.64902"
       id="path692" />
    <path
       style="fill:#00ff66;fill-opacity:1;fill-rule:nonzero;stroke:none;stroke-width:0.352778"
       d="m 87.955114,173.27639 h 8.258563 v 67.56108 h -8.258563 z m -24.771631,67.56108 h 24.771631 v 9.65178 H 63.183483 Z m 0,-77.21286 h 24.771631 v 9.65316 H 63.183483 Z m -8.258563,9.65178 h 8.258563 v 67.56108 H 54.92492 Z m 0,0"
       id="path694" />
    <path
       style="fill:#00ff66;fill-opacity:1;fill-rule:nonzero;stroke:none;stroke-width:0.352778"
       d="m 154.01963,211.88213 h 8.2586 v 28.95258 h -8.2586 z m 0,-38.60574 h 8.2586 v 9.65316 h -8.2586 z m -24.7716,67.56108 h 24.7716 v 9.65178 h -24.7716 z m 0,-38.60849 h 24.7716 v 9.65315 h -24.7716 z m 0,-38.60437 h 24.7716 v 9.65316 h -24.7716 z m -8.25859,67.56108 h 8.25859 v 9.65178 h -8.25859 z m 0,-57.9093 h 8.25859 v 28.95259 h -8.25859 z m 0,0"
       id="path696" />
    <path
       style="fill:#00ff66;fill-opacity:1;fill-rule:nonzero;stroke:none;stroke-width:0.352778"
       d="m 178.79539,163.62461 h 24.7716 v 9.65316 h -24.7716 z m -8.2586,86.86188 v -77.2101 h 8.2586 v 28.95259 h 24.7716 v -28.95259 h 8.25859 v 77.2101 h -8.25859 v -38.60436 h -24.7716 v 38.60436"
       id="path698" />
    <path
       style="fill:#00ff66;fill-opacity:1;fill-rule:nonzero;stroke:none;stroke-width:0.352778"
       d="m 253.11434,250.48649 v -19.30493 h -8.25856 v -19.29943 h 8.25856 v -48.25752 h 8.2586 v 86.86188 z m -16.51716,-48.25751 h 8.2586 v 9.65315 h -8.2586 z m -16.51303,48.25751 v -86.86188 h 8.2586 v 19.30081 h 8.25443 v 19.30356 h -8.25443 v 48.25751"
       id="path700" />
    <path
       style="fill:#00ff66;fill-opacity:1;fill-rule:nonzero;stroke:none;stroke-width:0.352778"
       d="m 286.1487,250.48649 v -77.21285 h -16.51716 v -9.64903 h 41.29013 v 9.64903 h -16.51441 v 77.21285"
       id="path702" />
    <path
       style="fill:#00ff66;fill-opacity:1;fill-rule:nonzero;stroke:none;stroke-width:0.352778"
       d="m 327.43746,163.62461 h 24.773 v 9.65316 h -24.773 z m -8.25719,86.86188 v -77.2101 h 8.25719 v 28.95259 h 24.773 v -28.95259 h 8.25857 v 77.2101 h -8.25857 v -38.60436 h -24.773 v 38.60436"
       id="path704" />
    <path
       style="fill:#00ff66;fill-opacity:1;fill-rule:nonzero;stroke:none;stroke-width:0.352778"
       d="m 401.75782,250.48649 v -57.9093 h -8.2586 v -19.30355 h 8.2586 v -9.64903 h 8.2586 v 86.86188 z m -16.51716,-57.9093 h 8.25856 v 19.30494 h -8.25856 z m -16.51303,57.9093 v -86.86188 h 8.25859 v 9.64903 h 8.25444 v 19.30355 h -8.25444 v 57.9093"
       id="path706" />
    <path
       style="fill:#00ff66;fill-opacity:1;fill-rule:nonzero;stroke:none;stroke-width:0.352778"
       d="m 451.3093,211.88213 h 8.2586 v 28.95258 h -8.2586 z m 0,-38.60574 h 8.2586 v 28.95259 h -8.2586 z m -33.03432,77.2101 v -86.86188 h 33.03432 v 9.65178 h -24.77572 v 28.95259 h 24.77572 v 9.65315 h -24.77572 v 28.95534 h 24.77572 v 9.64902"
       id="path708" />
    <path
       style="fill:#00ff66;fill-opacity:1;fill-rule:nonzero;stroke:none;stroke-width:0.352778"
       d="m 500.85253,221.53391 h 8.2586 v 28.95258 h -8.2586 z m 0,-48.25752 h 8.2586 v 28.95259 h -8.2586 z m -33.03019,77.2101 v -86.86188 h 33.03019 v 9.65178 h -24.7716 v 28.95259 h 24.7716 v 19.30493 h -8.25443 v -9.65178 h -16.51717 v 38.60436"
       id="path710" />
    <path
       style="fill:#00ff66;fill-opacity:1;fill-rule:nonzero;stroke:none;stroke-width:0.352778"
       d="m 550.4013,173.27639 h 8.25856 v 67.56108 h -8.25856 z m -24.77301,67.56108 h 24.77301 v 9.65178 h -24.77301 z m 0,-77.21286 h 24.77301 v 9.65316 h -24.77301 z m -8.25856,9.65178 h 8.25856 v 67.56108 h -8.25856 z m 0,0"
       id="path712" />
    <path
       style="fill:#00ff66;fill-opacity:1;fill-rule:nonzero;stroke:none;stroke-width:0.352778"
       d="m 599.94865,173.27639 h 8.25857 v 9.65316 h -8.25857 z m 0,67.56108 v -28.95534 h -8.25859 v -9.65315 h 16.51716 v 38.60849 z m -24.773,0 h 24.773 v 9.65178 h -24.773 z m 0,-77.21286 h 24.773 v 9.65316 h -24.773 z m -8.25719,9.65178 h 8.25719 v 67.56108 h -8.25719 z m 0,0"
       id="path714" />
    <path
       style="fill:#00ff66;fill-opacity:1;fill-rule:nonzero;stroke:none;stroke-width:0.352778"
       d="m 616.46581,250.48649 v -9.65316 h 8.2586 v -67.55969 h -8.2586 v -9.64903 h 24.7716 v 9.64903 h -8.25443 v 67.55969 h 8.25443 v 9.65316"
       id="path716" />
    <path
       style="fill:#00ff66;fill-opacity:1;fill-rule:nonzero;stroke:none;stroke-width:0.352778"
       d="m 682.53033,173.27639 h 8.2586 v 67.56108 h -8.2586 z m -24.7716,67.56108 h 24.7716 v 9.65178 h -24.7716 z m 0,-77.21286 h 24.7716 v 9.65316 h -24.7716 z m -8.25859,9.65178 h 8.25722 v 67.56108 h -8.25722 z m 0,0"
       id="path718" />
  </g>
</svg>
